<?xml version="1.0" encoding="utf-8"?>
<!-- Generator: Adobe Illustrator 21.0.2, SVG Export Plug-In . SVG Version: 6.00 Build 0)  -->
<svg version="1.1" id="Layer_1" xmlns="http://www.w3.org/2000/svg" xmlns:xlink="http://www.w3.org/1999/xlink" x="0px" y="0px"
	 viewBox="0 0 1275.6 1275.6" style="enable-background:new 0 0 1275.6 1275.6;" xml:space="preserve">
<style type="text/css">
	.st0{stroke:#FFFFFF;stroke-width:8;stroke-miterlimit:10;}
	.st1{fill:none;stroke:#000000;stroke-width:45;stroke-miterlimit:10;}
</style>
<g>
	<path d="M1024.3,606.6l-42.9,40.7c-30.9-30.4-64.7-53.4-101.5-69.1c-36.8-15.7-72.6-23.5-107.6-23.5c-43.5,0-84.8,10.7-124.1,32
		c-39.3,21.4-69.8,50.3-91.4,86.8c-21.6,36.5-32.4,75.2-32.4,115.8c0,41.7,11.2,81.3,33.5,118.9c22.4,37.5,53.2,67.1,92.7,88.5
		c39.4,21.5,82.6,32.2,129.6,32.2c57,0,105.2-16.1,144.7-48.2c39.4-32.1,62.8-73.8,70.1-125.1H818.3v-53.5h238.8
		c-0.5,85.6-25.9,153.6-76.3,204s-117.7,75.5-202.1,75.5c-102.5,0-183.6-34.9-243.4-104.7c-46-53.7-68.9-115.9-68.9-186.5
		c0-52.5,13.2-101.3,39.6-146.5s62.5-80.6,108.5-106c46-25.5,97.9-38.2,156-38.2c47,0,91.2,8.5,132.6,25.4
		C944.5,542,984.9,569.1,1024.3,606.6z"/>
</g>
<path class="st0" d="M694.7,674.8l-9,11c-45,54.9-100.3,82.4-168.9,84.1c-62.5,1.5-113.2-16.8-155-55.6
	c-41.6-38.8-62.6-86.6-63.9-146.1c-0.9-39,7.4-74.7,24.6-106.1c17.2-31.3,42.3-57.1,74.6-76.3c32.3-19.2,68.4-29.4,106.9-30.3
	c35.3-0.8,68.4,5.6,98.2,19c29.6,13.4,55.7,33.8,77.3,60.6l9.4,11.7l63.1-50.8l-8.8-11.6c-27.1-35.8-61.9-63.7-103.4-82.8
	c-41.3-19.1-88-28.2-138.4-27c-83.8,1.9-154,31.1-208.6,86.8C237.9,417,211.1,485.8,213,565.5c1.8,75.5,26.7,140.3,74.1,192.9
	c56.6,62.2,133.4,92.7,228.2,90.4c49.7-1.2,95.1-11.8,135.2-31.5c40.2-19.8,73.9-47.8,100.3-83l9.1-12.2L694.7,674.8z"/>
<path class="st1" d="M1016.2,1207.3H233.7c-81.7,0-148-66.2-148-148V276.9c0-81.7,66.2-148,148-148h782.4c81.7,0,148,66.2,148,148
	v782.4C1164.1,1141.1,1097.9,1207.3,1016.2,1207.3z"/>
</svg>
