<?xml version="1.0" encoding="utf-8"?>
<!-- Generator: Adobe Illustrator 21.0.2, SVG Export Plug-In . SVG Version: 6.00 Build 0)  -->
<svg version="1.1" id="Layer_1" xmlns="http://www.w3.org/2000/svg" xmlns:xlink="http://www.w3.org/1999/xlink" x="0px" y="0px"
	 viewBox="0 0 1275.6 1275.6" style="enable-background:new 0 0 1275.6 1275.6;" xml:space="preserve">
<style type="text/css">
	.st0{fill:none;stroke:#000000;stroke-width:45;stroke-miterlimit:10;}
</style>
<g>
	<path d="M515.2,844.8c49-1.2,93.9-11.6,133.5-31.1c39.5-19.4,72.7-47,98.9-81.8l6.7-8.9l-58.9-42.7l-6.6,8.1
		c-45.8,55.8-102,83.8-171.9,85.6c-63.5,1.5-115.1-17-157.8-56.7c-42.5-39.7-63.9-88.4-65.2-148.9c-0.9-39.7,7.5-76,25.1-108.1
		c17.7-32.1,43.2-58.3,76.1-77.8c32.9-19.6,69.5-29.9,108.9-30.9c36-0.8,69.6,5.7,99.9,19.4c30.3,13.7,56.8,34.5,78.8,61.7l6.9,8.6
		l57-45.9l-6.5-8.5c-26.7-35.3-61-62.8-101.9-81.6c-38.4-17.8-81.4-26.7-127.9-26.7c-2.9,0-5.8,0-8.7,0.1
		c-82.7,1.9-152,30.7-205.8,85.6C241.6,419,215.1,486.7,217,565.4c1.8,74.4,26.4,138.5,73.1,190.3
		C345.9,817.1,421.7,847.1,515.2,844.8z"/>
	<path d="M506,643.9c-21.7,37.1-34.4,76.6-38.3,118.7c15.5,2.7,31.8,3.8,49,3.3c3-0.1,6-0.2,9-0.4c3.4-32,13.8-62.7,31.1-92
		c21.6-36.5,52.1-65.4,91.4-86.8c39.3-21.3,80.6-32,124.1-32c35,0,70.8,7.8,107.6,23.5c36.8,15.7,70.6,38.7,101.5,69.1l42.9-40.7
		c-39.4-37.5-79.8-64.6-121.2-81.5c-41.4-16.9-85.6-25.4-132.6-25.4c-58.1,0-110,12.7-156,38.2C568.5,563.3,532.4,598.7,506,643.9z"
		/>
	<path d="M818.3,802.1v53.5H995c-7.3,51.3-30.7,93-70.1,125.1c-39.5,32.1-87.7,48.2-144.7,48.2c-47,0-90.2-10.7-129.6-32.2
		c-39.5-21.4-70.3-51-92.7-88.5c-10.8-18.3-19-37-24.6-56.3c-5.9,0.4-11.9,0.7-17.9,0.9c-3.4,0.1-6.7,0.1-10,0.1
		c-11.2,0-22.1-0.5-32.8-1.4c9.6,45.9,30.5,87.7,62.7,125.4c59.8,69.8,140.9,104.7,243.4,104.7c84.4,0,151.7-25.1,202.1-75.5
		c50.4-50.4,75.8-118.4,76.3-204H818.3z"/>
</g>
<path class="st0" d="M1016.2,1207.3H233.7c-81.7,0-148-66.2-148-148V276.9c0-81.7,66.2-148,148-148h782.4c81.7,0,148,66.2,148,148
	v782.4C1164.1,1141.1,1097.9,1207.3,1016.2,1207.3z"/>
</svg>
