<?xml version="1.0" encoding="utf-8"?>
<!-- Generator: Adobe Illustrator 21.0.2, SVG Export Plug-In . SVG Version: 6.00 Build 0)  -->
<svg version="1.1" id="Layer_1" xmlns="http://www.w3.org/2000/svg" xmlns:xlink="http://www.w3.org/1999/xlink" x="0px" y="0px"
	 viewBox="0 0 1275.6 1275.6" style="enable-background:new 0 0 1275.6 1275.6;" xml:space="preserve">
<style type="text/css">
	.st0{fill:#1D1D1B;}
	.st1{fill:none;stroke:#1D1D1B;stroke-width:45;stroke-miterlimit:10;}
</style>
<path class="st0" d="M738.7,614.4l-4.6,14.4c-23.2,72.3-67.3,121.3-134.9,149.9c-61.6,26-119.1,27.8-175.9,5.6
	c-56.6-22.2-96.2-61.5-120.9-120.1c-16.2-38.4-22-77.1-17.2-115.1c4.8-37.9,19.6-73.3,44.2-105.1c24.6-31.8,56.4-56.1,94.3-72.1
	c34.8-14.7,70.2-21.3,105-19.7c34.7,1.7,68.6,11.7,100.6,29.9l13.9,7.9l42.8-75.3l-13.3-8.1c-41-24.9-86.5-39-135.3-41.7
	c-48.6-2.8-98.5,6.5-148.2,27.5c-82.5,34.8-140.8,91.4-173.2,168.2c-32.5,76.9-32.1,155.8,1,234.3c31.4,74.3,81.6,129,149.4,162.6
	c80.7,39.6,169,39.8,262.3,0.3c48.9-20.7,89.9-49.1,122-84.4c32.2-35.5,54.7-76.5,67.1-121.9l4.3-15.7L738.7,614.4z"/>
<g>
	<path class="st0" d="M1025,596.9l-42.9,40.7c-30.9-30.4-64.7-53.4-101.5-69.1c-36.8-15.7-72.6-23.5-107.6-23.5
		c-43.5,0-84.8,10.7-124.1,32c-39.3,21.4-69.8,50.3-91.4,86.8c-21.6,36.5-32.4,75.2-32.4,115.8c0,41.7,11.2,81.3,33.5,118.9
		c22.4,37.5,53.2,67.1,92.7,88.5c39.4,21.5,82.6,32.2,129.6,32.2c57,0,105.2-16.1,144.7-48.2c39.4-32.1,62.8-73.8,70.1-125.1H819
		v-53.5h238.8c-0.5,85.6-25.9,153.6-76.3,204c-50.4,50.4-117.7,75.5-202.1,75.5c-102.5,0-183.6-34.9-243.4-104.7
		c-46-53.7-68.9-115.9-68.9-186.5c0-52.5,13.2-101.3,39.6-146.5c26.4-45.2,62.5-80.6,108.5-106c46-25.5,97.9-38.2,156-38.2
		c47,0,91.2,8.5,132.6,25.4C945.2,532.3,985.6,559.4,1025,596.9z"/>
</g>
<path class="st1" d="M1016.2,1207.3H233.7c-81.7,0-148-66.2-148-148V276.9c0-81.7,66.2-148,148-148h782.4c81.7,0,148,66.2,148,148
	v782.4C1164.1,1141.1,1097.9,1207.3,1016.2,1207.3z"/>
</svg>
